# xmcd
#
# Track frame offsets: 
#        150
#        22240
#        41045
#        54402
#        65455
#        73547
#        80697
#        83136
#        96066
#        109339
#        123664
#        137629
#        150870
#        165072
#        180635
#        193163
#        206670
#        218034
#        234743
#        243285
#        249077
#
# Disc length: 3641 seconds
#
# Revision: 1
# Processed by: cddbd v1.5.2PL0 Copyright (c) Steve Scherf et al.
# Submitted via: ExactAudioCopy v0.99pb4
#
DISCID=1d0e3715
DTITLE=Θεοδωρίδου Νατάσα - Μια διαδρομή Θεσσαλονίκη Αθήνα CD1
DYEAR=2003
DGENRE=Live
TTITLE0=Φεγγάρι
TTITLE1=Αχ
TTITLE2=Δεν σ'αδικώ
TTITLE3=Αχάριστη καρδιά
TTITLE4=Κίνδυνος Θάνατος
TTITLE5=Περασμένες μου αγάπες
TTITLE6=Σβήσε την φλόγα
TTITLE7=Μια χαμένη Κυριακή
TTITLE8=Νεκρό μου όνειρο
TTITLE9=Δεν είμαι εγώ
TTITLE10=Αν υπάρχει παράδεισος
TTITLE11=Τι φταίω
TTITLE12=Σωστό ή λάθος
TTITLE13=Σου βάζω δύσκολα
TTITLE14=Δεν ξέρω πόσο σ' αγαπώ
TTITLE15=Καλή τύχη
TTITLE16=Τώρα κλαίς - γιατί κλαίς
TTITLE17=Δεν θέλω τέτοιους φίλους
TTITLE18=Ιστορία μου
TTITLE19=Καμμιά φορά
TTITLE20=Έλα που φοβάμαι
EXTD=
EXTT0=
EXTT1=
EXTT2=
EXTT3=
EXTT4=
EXTT5=
EXTT6=
EXTT7=
EXTT8=
EXTT9=
EXTT10=
EXTT11=
EXTT12=
EXTT13=
EXTT14=
EXTT15=
EXTT16=
EXTT17=
EXTT18=
EXTT19=
EXTT20=
PLAYORDER=
